# xmcd
#
# Track frame offsets: 
#        150
#        17230
#        47210
#
# Disc length: 1144 seconds
#
# Revision: 0
# Processed by: cddbd v1.5.2PL0 Copyright (c) Steve Scherf et al.
# Submitted via: ExactAudioCopy v0.99pb4
#
DISCID=20047603
DTITLE=Bassheads - Back to the old school
DYEAR=1992
DGENRE=Techno
TTITLE0=Back to the old school (edit)
TTITLE1=Back to the old school (original mix)
TTITLE2=Back to the old school (in your area mix)
EXTD=
EXTT0=
EXTT1=
EXTT2=
PLAYORDER=
